<svg xmlns="http://www.w3.org/2000/svg" width="28.1" height="22.48" viewBox="0 0 28.1 22.48">
  <path id="Icon_awesome-github-alt" data-name="Icon awesome-github-alt" d="M10.895,20c0,1.224-.638,3.226-2.148,3.226S6.6,21.219,6.6,20s.638-3.226,2.148-3.226,2.148,2,2.148,3.226ZM28.1,17.04A12.688,12.688,0,0,1,27.075,22.6c-2.219,4.484-8.319,4.379-12.686,4.379-4.437,0-10.9.158-13.207-4.379A12.531,12.531,0,0,1,0,17.04a10.067,10.067,0,0,1,2.429-6.65,9.164,9.164,0,0,1-.451-2.857A5.829,5.829,0,0,1,2.833,4.5,9.147,9.147,0,0,1,9.2,6.607,22.424,22.424,0,0,1,14.4,6.022a20.194,20.194,0,0,1,4.707.539A9.048,9.048,0,0,1,25.413,4.5a5.775,5.775,0,0,1,.855,3.032,9.035,9.035,0,0,1-.451,2.822A10.087,10.087,0,0,1,28.1,17.04ZM24.336,20c0-2.57-1.563-4.836-4.3-4.836a24.07,24.07,0,0,0-3.278.351,17.2,17.2,0,0,1-2.64.187,17.306,17.306,0,0,1-2.64-.187A23.679,23.679,0,0,0,8.2,15.16c-2.74,0-4.3,2.266-4.3,4.836,0,5.14,4.707,5.93,8.8,5.93h2.822c4.115,0,8.816-.784,8.816-5.93ZM19.5,16.77c-1.51,0-2.148,2-2.148,3.226s.638,3.226,2.148,3.226,2.148-2,2.148-3.226S21.01,16.77,19.5,16.77Z" transform="translate(0 -4.5)" fill="#edf4f8"/>
</svg>
