<svg xmlns="http://www.w3.org/2000/svg" width="22.486" height="22.48" viewBox="0 0 22.486 22.48">
  <path id="Icon_awesome-instagram" data-name="Icon awesome-instagram" d="M11.24,7.714A5.764,5.764,0,1,0,17,13.478,5.755,5.755,0,0,0,11.24,7.714Zm0,9.511a3.747,3.747,0,1,1,3.747-3.747A3.754,3.754,0,0,1,11.24,17.225Zm7.344-9.747a1.344,1.344,0,1,1-1.344-1.344A1.341,1.341,0,0,1,18.584,7.478ZM22.4,8.843a6.653,6.653,0,0,0-1.816-4.71,6.7,6.7,0,0,0-4.71-1.816c-1.856-.105-7.419-.105-9.275,0A6.687,6.687,0,0,0,1.89,4.128,6.675,6.675,0,0,0,.074,8.838c-.105,1.856-.105,7.419,0,9.275a6.653,6.653,0,0,0,1.816,4.71A6.705,6.705,0,0,0,6.6,24.639c1.856.105,7.419.105,9.275,0a6.653,6.653,0,0,0,4.71-1.816,6.7,6.7,0,0,0,1.816-4.71c.105-1.856.105-7.414,0-9.27ZM20,20.1a3.794,3.794,0,0,1-2.137,2.137c-1.48.587-4.991.451-6.627.451s-5.152.13-6.627-.451A3.794,3.794,0,0,1,2.477,20.1c-.587-1.48-.451-4.991-.451-6.627s-.13-5.152.451-6.627A3.794,3.794,0,0,1,4.613,4.714c1.48-.587,4.991-.451,6.627-.451s5.152-.13,6.627.451A3.794,3.794,0,0,1,20,6.851c.587,1.48.451,4.991.451,6.627S20.59,18.63,20,20.1Z" transform="translate(0.005 -2.238)" fill="#edf4f8"/>
</svg>
