<svg xmlns="http://www.w3.org/2000/svg" width="22.48" height="22.48" viewBox="0 0 22.48 22.48">
  <path id="Icon_ionic-logo-whatsapp" data-name="Icon ionic-logo-whatsapp" d="M13.694,2.25A10.994,10.994,0,0,0,2.658,13.2a10.838,10.838,0,0,0,1.584,5.655L2.25,24.73l6.11-1.941A11.055,11.055,0,0,0,24.73,13.2,10.994,10.994,0,0,0,13.694,2.25Zm5.488,15.11a2.851,2.851,0,0,1-1.952,1.258c-.518.027-.532.4-3.354-.825a11.515,11.515,0,0,1-4.653-4.4,5.412,5.412,0,0,1-1.041-2.933A3.127,3.127,0,0,1,9.256,8.166a1.081,1.081,0,0,1,.764-.322c.222,0,.366-.007.531,0s.411-.034.625.534.725,1.965.79,2.107a.511.511,0,0,1,.005.49,1.917,1.917,0,0,1-.3.456c-.147.158-.31.353-.441.474-.147.134-.3.28-.146.565a8.445,8.445,0,0,0,1.494,1.994,7.7,7.7,0,0,0,2.213,1.471c.277.151.442.134.613-.047s.735-.79.933-1.062.384-.219.639-.117,1.614.831,1.89.981.461.227.527.346A2.318,2.318,0,0,1,19.182,17.36Z" transform="translate(-2.25 -2.25)" fill="#edf4f8"/>
</svg>
